<?xml version="1.0" encoding="iso-8859-1"?>
<!-- Generator: Adobe Illustrator 19.0.0, SVG Export Plug-In . SVG Version: 6.00 Build 0)  -->
<svg version="1.1" id="Capa_1" xmlns="http://www.w3.org/2000/svg" xmlns:xlink="http://www.w3.org/1999/xlink" x="0px" y="0px"
	 viewBox="0 0 491.1 491.1" style="enable-background:new 0 0 491.1 491.1;" xml:space="preserve">
<g>
	<g>
		<path d="M162.7,332h2.7c2,7.7,5.1,14.9,9.1,21.6l-1.4,1.4c-8.3,8.3-8.3,20.9,0,29.2c4.2,4.2,9.4,6.3,14.6,6.3s10.4-2.1,14.6-6.3
			l1.7-1.7c6.3,3.6,13.1,6.5,20.2,8.4v2.7c0,11.5,9.4,20.9,20.9,20.9c11.5,0,20.9-9.4,20.9-20.9v-2.7c7.2-1.9,14-4.8,20.4-8.4l3,3
			c8.1,8.1,21.4,8.1,29.5,0s8.1-21.4,0-29.5l-2.8-2.8c3.9-6.5,6.9-13.5,8.8-21h1.6c11.5,0,21.9-9.4,21.9-20.9s-9.4-20.9-20.9-20.9
			h-2.6c-1.9-7.5-4.9-14.6-8.7-21l0.8-0.8c8.3-8.3,8.3-20.9,0-29.2s-20.9-8.3-29.2,0l-0.8,0.8c-6.5-3.8-13.5-6.7-21-8.7v-1.6
			c0-11.5-9.4-20.9-20.9-20.9s-20.9,9.4-20.9,20.9v1.6c-7.5,2-14.6,5-21,8.8l-1.2-1.2c-8.1-8.1-21.4-8.1-29.5,0
			c-8.1,8.1-8.1,21.4,0,29.5l1.4,1.4c-3.7,6.3-6.5,13.2-8.4,20.4h-2.7c-11.5,0-20.9,9.4-20.9,20.9C141.9,322.6,151.2,332,162.7,332z
			 M245.1,270.5c22.9,0,41.7,18.8,41.7,41.7c0,22.9-18.8,41.7-41.7,41.7s-41.7-18.8-41.7-41.7C203.4,289.3,222.1,270.5,245.1,270.5z
			"/>
		<path d="M470.3,0.5H20.9C9.4,0.5,0,9.9,0,21.4v448.3c0,11.5,9.4,20.9,20.9,20.9h448.3c11.5,0,20.9-9.4,21.9-19.8V21.4
			C491.1,9.9,481.7,0.5,470.3,0.5z M449.4,449.8H40.7V174.6h408.7L449.4,449.8L449.4,449.8z M449.4,132.9H40.7V41.2h408.7
			L449.4,132.9L449.4,132.9z"/>
		<circle cx="231.5" cy="89.6" r="20.5"/>
		<circle cx="116.8" cy="89.6" r="20.5"/>
	</g>
</g>
<g>
</g>
<g>
</g>
<g>
</g>
<g>
</g>
<g>
</g>
<g>
</g>
<g>
</g>
<g>
</g>
<g>
</g>
<g>
</g>
<g>
</g>
<g>
</g>
<g>
</g>
<g>
</g>
<g>
</g>
</svg>
