<?xml version="1.0" encoding="iso-8859-1"?>
<!-- Generator: Adobe Illustrator 19.0.0, SVG Export Plug-In . SVG Version: 6.00 Build 0)  -->
<svg version="1.1" id="Layer_1" xmlns="http://www.w3.org/2000/svg" xmlns:xlink="http://www.w3.org/1999/xlink" x="0px" y="0px"
	 viewBox="0 0 512 512" style="enable-background:new 0 0 512 512;" xml:space="preserve">
<g>
	<g>
		<g>
			<path d="M490.667,0H21.333C9.551,0,0,9.551,0,21.333v128v341.333C0,502.449,9.551,512,21.333,512h469.333
				c11.782,0,21.333-9.551,21.333-21.333V149.333v-128C512,9.551,502.449,0,490.667,0z M42.667,42.667h426.667V128H42.667V42.667z
				 M469.333,469.333H42.667V170.667h426.667V469.333z"/>
			<path d="M85.333,64C73.557,64,64,73.557,64,85.333s9.557,21.333,21.333,21.333s21.333-9.557,21.333-21.333S97.109,64,85.333,64z"
				/>
			<path d="M149.333,64C137.557,64,128,73.557,128,85.333s9.557,21.333,21.333,21.333s21.333-9.557,21.333-21.333
				S161.109,64,149.333,64z"/>
			<path d="M213.333,64C201.557,64,192,73.557,192,85.333s9.557,21.333,21.333,21.333s21.333-9.557,21.333-21.333
				S225.109,64,213.333,64z"/>
			<path d="M256,448c70.683,0,128-57.317,128-128s-57.317-128-128-128s-128,57.317-128,128S185.317,448,256,448z M341.333,320
				c0,47.119-38.214,85.333-85.333,85.333c-39.753,0-73.168-27.2-82.643-64H256c11.782,0,21.333-9.551,21.333-21.333v-82.643
				C314.133,246.832,341.333,280.247,341.333,320z M198.3,257.15c0.237-0.217,0.475-0.433,0.715-0.648
				c0.798-0.717,1.608-1.421,2.433-2.108c0.12-0.1,0.236-0.203,0.356-0.302c0.931-0.767,1.882-1.509,2.846-2.237
				c0.247-0.187,0.498-0.37,0.747-0.554c0.815-0.602,1.641-1.189,2.478-1.762c0.196-0.134,0.389-0.273,0.587-0.405
				c1-0.672,2.016-1.322,3.045-1.952c0.243-0.149,0.49-0.292,0.735-0.439c0.858-0.513,1.725-1.012,2.602-1.496
				c0.249-0.137,0.495-0.278,0.745-0.412c1.066-0.575,2.145-1.128,3.237-1.658c0.217-0.105,0.438-0.204,0.656-0.308
				c0.922-0.438,1.854-0.858,2.794-1.263c0.289-0.124,0.577-0.25,0.867-0.372c1.129-0.472,2.268-0.925,3.421-1.349
				c0.151-0.056,0.305-0.105,0.457-0.16c1.027-0.371,2.064-0.72,3.109-1.052c0.313-0.099,0.626-0.198,0.94-0.294
				c1.19-0.363,2.387-0.71,3.598-1.022v61.31h-61.31c0.312-1.211,0.659-2.408,1.022-3.598c0.096-0.314,0.195-0.627,0.294-0.94
				c0.332-1.045,0.681-2.082,1.052-3.109c0.055-0.152,0.105-0.306,0.16-0.457c0.424-1.154,0.878-2.293,1.35-3.423
				c0.121-0.289,0.246-0.576,0.37-0.863c0.405-0.941,0.827-1.873,1.264-2.796c0.103-0.218,0.202-0.439,0.307-0.656
				c0.53-1.093,1.084-2.171,1.658-3.237c0.135-0.25,0.275-0.497,0.412-0.745c0.484-0.877,0.983-1.744,1.496-2.602
				c0.147-0.245,0.29-0.491,0.439-0.735c0.63-1.029,1.28-2.045,1.952-3.045c0.133-0.197,0.271-0.39,0.405-0.587
				c0.573-0.837,1.161-1.663,1.762-2.478c0.184-0.249,0.367-0.5,0.554-0.747c0.727-0.964,1.47-1.915,2.237-2.846
				c0.099-0.12,0.202-0.236,0.302-0.356c0.687-0.825,1.391-1.635,2.108-2.433c0.215-0.239,0.43-0.478,0.648-0.715
				C194.793,260.511,196.511,258.793,198.3,257.15z"/>
		</g>
	</g>
</g>
<g>
</g>
<g>
</g>
<g>
</g>
<g>
</g>
<g>
</g>
<g>
</g>
<g>
</g>
<g>
</g>
<g>
</g>
<g>
</g>
<g>
</g>
<g>
</g>
<g>
</g>
<g>
</g>
<g>
</g>
</svg>
