<?xml version="1.0" encoding="iso-8859-1"?>
<!-- Generator: Adobe Illustrator 18.0.0, SVG Export Plug-In . SVG Version: 6.00 Build 0)  -->
<!DOCTYPE svg PUBLIC "-//W3C//DTD SVG 1.1//EN" "http://www.w3.org/Graphics/SVG/1.1/DTD/svg11.dtd">
<svg version="1.1" id="Capa_1" xmlns="http://www.w3.org/2000/svg" xmlns:xlink="http://www.w3.org/1999/xlink" x="0px" y="0px"
	 viewBox="0 0 355.094 355.094" style="enable-background:new 0 0 355.094 355.094;" xml:space="preserve">
<g>
	<path d="M0,25.308v304.479h355.094V25.308H0z M263.984,48.657c7.082,0,12.816,5.74,12.816,12.821
		c0,7.084-5.734,12.826-12.816,12.826c-7.078,0-12.836-5.742-12.836-12.826C251.148,54.397,256.906,48.657,263.984,48.657z
		 M214.666,48.657c7.08,0,12.814,5.74,12.814,12.821c0,7.084-5.734,12.826-12.814,12.826c-7.078,0-12.836-5.742-12.836-12.826
		C201.83,54.397,207.588,48.657,214.666,48.657z M319.576,296.325H35.512V105.706h284.065V296.325z M313.303,74.305
		c-7.08,0-12.832-5.742-12.832-12.826c0-7.081,5.752-12.821,12.832-12.821c7.08,0,12.814,5.74,12.814,12.821
		C326.117,68.563,320.383,74.305,313.303,74.305z"/>
	<path d="M170.701,255.987c13.641-13.641,15.545-34.566,5.709-50.236l26.684-26.7l12.98,12.985l9.43-9.434l-8.598-8.605l4.633-4.648
		l8.621,8.608l10.102-10.116l-8.594-8.604l4.633-4.648l8.619,8.614l8.748-8.747l-25.83-25.835l-64.289,64.284
		c-15.66-9.842-36.6-7.949-50.231,5.691c-15.85,15.849-15.85,41.542,0,57.391C129.162,271.84,154.854,271.84,170.701,255.987z
		 M124.646,218.956l25.693,25.694l-8.746,8.748L115.9,227.704L124.646,218.956z"/>
</g>
<g>
</g>
<g>
</g>
<g>
</g>
<g>
</g>
<g>
</g>
<g>
</g>
<g>
</g>
<g>
</g>
<g>
</g>
<g>
</g>
<g>
</g>
<g>
</g>
<g>
</g>
<g>
</g>
<g>
</g>
</svg>
