<?xml version="1.0" encoding="iso-8859-1"?>
<!-- Generator: Adobe Illustrator 16.0.0, SVG Export Plug-In . SVG Version: 6.00 Build 0)  -->
<!DOCTYPE svg PUBLIC "-//W3C//DTD SVG 1.1//EN" "http://www.w3.org/Graphics/SVG/1.1/DTD/svg11.dtd">
<svg version="1.1" id="Capa_1" xmlns="http://www.w3.org/2000/svg" xmlns:xlink="http://www.w3.org/1999/xlink" x="0px" y="0px"
	 width="43.785px" height="43.785px" viewBox="0 0 43.785 43.785" style="enable-background:new 0 0 43.785 43.785;"
	 xml:space="preserve">
<g>
	<g>
		<path d="M42.785,4.431H1c-0.553,0-1,0.447-1,1v18.467v3.273v11.183c0,0.554,0.447,1,1,1h10.662h3.316h27.807c0.553,0,1-0.446,1-1
			V5.431C43.785,4.878,43.338,4.431,42.785,4.431z M41.785,37.354H14.979h-3.316H2.001V27.171v-3.273V6.431h39.784V37.354
			L41.785,37.354z"/>
		<path d="M39.432,9.375H40.4c0.554,0,1-0.447,1-1c0-0.553-0.446-1-1-1h-0.969c-0.553,0-1,0.447-1,1
			C38.432,8.928,38.879,9.375,39.432,9.375z"/>
		<path d="M31.131,9.375H32.1c0.553,0,1-0.447,1-1c0-0.553-0.447-1-1-1h-0.969c-0.553,0-1,0.447-1,1
			C30.131,8.928,30.578,9.375,31.131,9.375z"/>
		<path d="M35.281,9.375h0.969c0.553,0,1-0.447,1-1c0-0.553-0.447-1-1-1h-0.969c-0.553,0-1,0.447-1,1
			C34.281,8.928,34.729,9.375,35.281,9.375z"/>
		<path d="M2.496,36.192c0.026,0.069,0.068,0.128,0.108,0.188c0.026,0.04,0.038,0.085,0.07,0.122
			c0.007,0.008,0.017,0.01,0.023,0.018c0.074,0.08,0.165,0.142,0.262,0.192c0.024,0.013,0.043,0.035,0.068,0.046
			c0.122,0.053,0.256,0.084,0.397,0.084h8.766h5.521h22.646c0.553,0,1-0.447,1-1V11.265c0-0.553-0.447-1-1-1H3.426
			c-0.553,0-1,0.447-1,1v9.996v5.507v9.073c0,0.049,0.021,0.092,0.028,0.139C2.464,36.052,2.471,36.123,2.496,36.192z
			 M39.359,12.265v22.576h-9.967v-2.078c0-0.553-0.447-1-1-1s-1,0.447-1,1v2.078h-1v-2.078c0-0.553-0.447-1-1-1s-1,0.447-1,1v2.078
			h-1v-2.078c0-0.553-0.447-1-1-1c-0.553,0-1,0.447-1,1v2.078h-1v-2.078c0-0.553-0.447-1-1-1c-0.553,0-1,0.447-1,1v2.078h-0.68
			h-0.32v-2.078c0-0.553-0.447-1-1-1c-0.553,0-1,0.447-1,1v2.078h-1v-2.078c0-0.553-0.447-1-1-1c-0.553,0-1,0.447-1,1v2.078h-0.201
			H6.079l8.484-7.456l4.147,0.771c0.272,0.047,0.553-0.016,0.776-0.18l9.896-7.294l4.101,1.68c0.267,0.112,0.568,0.1,0.826-0.031
			c0.26-0.13,0.448-0.364,0.521-0.645l1.42-5.526c0.138-0.535-0.186-1.08-0.721-1.218c-0.532-0.136-1.08,0.185-1.217,0.72
			l-1.135,4.415l-3.559-1.458c-0.321-0.135-0.69-0.088-0.973,0.12l-10,7.37l-4.198-0.779c-0.304-0.053-0.613,0.031-0.843,0.232
			l-9.182,8.069v-2.79H6.33c0.553,0,1-0.447,1-1s-0.447-1-1-1H4.424v-1H6.33c0.553,0,1-0.447,1-1s-0.447-1-1-1H4.424v-1H6.33
			c0.553,0,1-0.447,1-1s-0.447-1-1-1H4.424v-1H6.33c0.553,0,1-0.447,1-1c0-0.553-0.447-1-1-1H4.424v-1H6.33c0.553,0,1-0.447,1-1
			c0-0.553-0.447-1-1-1H4.424v-1H6.33c0.553,0,1-0.447,1-1c0-0.553-0.447-1-1-1H4.424v-1.576H39.359L39.359,12.265z"/>
	</g>
</g>
<g>
</g>
<g>
</g>
<g>
</g>
<g>
</g>
<g>
</g>
<g>
</g>
<g>
</g>
<g>
</g>
<g>
</g>
<g>
</g>
<g>
</g>
<g>
</g>
<g>
</g>
<g>
</g>
<g>
</g>
</svg>
