<?xml version="1.0" encoding="iso-8859-1"?>
<!-- Generator: Adobe Illustrator 16.0.0, SVG Export Plug-In . SVG Version: 6.00 Build 0)  -->
<!DOCTYPE svg PUBLIC "-//W3C//DTD SVG 1.1//EN" "http://www.w3.org/Graphics/SVG/1.1/DTD/svg11.dtd">
<svg version="1.1" id="Capa_1" xmlns="http://www.w3.org/2000/svg" xmlns:xlink="http://www.w3.org/1999/xlink" x="0px" y="0px"
	 width="34.807px" height="34.807px" viewBox="0 0 34.807 34.807" style="enable-background:new 0 0 34.807 34.807;"
	 xml:space="preserve">
<g>
	<g>
		<path d="M33.807,1.323H1c-0.552,0-1,0.447-1,1v30.16c0,0.553,0.448,1,1,1h32.807c0.553,0,1-0.447,1-1V2.323
			C34.807,1.77,34.359,1.323,33.807,1.323z M32.807,3.323v5.316H2V3.323H32.807z M2,31.483V10.639h30.807v20.844H2z"/>
		<path d="M20.199,14.464c-1.028,0-2.014,0.362-2.796,1.002c-0.782-0.64-1.768-1.002-2.797-1.002c-2.439,0-4.423,1.984-4.423,4.423
			c0,0.955,0.307,1.861,0.889,2.636c0.038,0.069,0.084,0.136,0.139,0.196l5.34,5.834c0.187,0.205,0.451,0.321,0.728,0.324
			c0.003,0,0.006,0,0.009,0c0.274,0,0.536-0.111,0.726-0.312l5.061-5.336c0.238-0.206,0.443-0.421,0.619-0.645
			c0.054-0.059,0.1-0.122,0.138-0.188c0.519-0.745,0.792-1.61,0.792-2.51C24.623,16.448,22.639,14.464,20.199,14.464z"/>
	</g>
</g>
<g>
</g>
<g>
</g>
<g>
</g>
<g>
</g>
<g>
</g>
<g>
</g>
<g>
</g>
<g>
</g>
<g>
</g>
<g>
</g>
<g>
</g>
<g>
</g>
<g>
</g>
<g>
</g>
<g>
</g>
</svg>
