<?xml version="1.0" encoding="iso-8859-1"?>
<!-- Generator: Adobe Illustrator 19.0.0, SVG Export Plug-In . SVG Version: 6.00 Build 0)  -->
<svg version="1.1" id="Capa_1" xmlns="http://www.w3.org/2000/svg" xmlns:xlink="http://www.w3.org/1999/xlink" x="0px" y="0px"
	 viewBox="0 0 490.8 490.8" style="enable-background:new 0 0 490.8 490.8;" xml:space="preserve">
<g>
	<g>
		<g>
			<path d="M343.9,121.4h41.7c10.4,0,20.8-9.4,20.8-20.8c0-11.5-9.4-20.8-20.8-20.8h-41.7c-11.5,0-20.8,9.4-20.8,20.8
				C323,112,332.4,121.4,343.9,121.4z"/>
			<path d="M111.5,128.7c15.6,0,27.1-12.5,27.1-27.1s-12.5-27.1-27.1-27.1S84.4,87,84.4,101.6S95.9,128.7,111.5,128.7z"/>
			<path d="M237.6,128.7c15.6,0,27.1-12.5,27.1-27.1s-11.5-27.1-27.1-27.1c-14.6,0-27.1,12.5-27.1,27.1
				C210.5,116.2,222,128.7,237.6,128.7z"/>
			<path d="M470,0.5H20.8C9.4,0.5,0,9.9,0,21.4v396c0,40.6,33.3,72.9,72.9,72.9h343.9c40.6,0,72.9-32.3,74-72.9v-396
				C490.8,9.9,481.4,0.5,470,0.5z M449.1,417.3c0,17.7-14.6,32.3-32.3,32.3H72.9c-17.7,0-32.3-14.6-32.3-32.3V201.6h408.5V417.3z
				 M449.1,161H40.6V41.2h408.5V161z"/>
		</g>
		<path d="M291.8,358.6c0-25.6-20.8-46.4-46.4-46.4c-10.9,0-19.9-8.9-19.9-19.9c0-10.9,8.9-19.9,19.9-19.9c5.5,0,10.7,2.2,14.5,6.3
			c5,5.3,13.4,5.6,18.7,0.6c5.3-5,5.6-13.4,0.6-18.7c-5.6-6-12.8-10.3-20.5-12.6v-9.2c0-7.3-5.9-13.3-13.3-13.3
			c-7.3,0-13.3,5.9-13.3,13.3v9.2c-19.1,5.7-33.1,23.5-33.1,44.4c0,25.6,20.8,46.4,46.4,46.4c10.9,0,19.9,8.9,19.9,19.9
			s-9,19.7-19.9,19.7c-5.5,0-10.7-2.2-14.5-6.3c-5-5.3-13.4-5.6-18.7-0.6s-5.6,13.4-0.6,18.7c5.6,6,12.8,10.3,20.5,12.6v9.2
			c0,7.3,5.9,13.3,13.3,13.3c7.3,0,13.3-5.9,13.3-13.3v-9.2C277.8,397.3,291.8,379.5,291.8,358.6z"/>
	</g>
</g>
<g>
</g>
<g>
</g>
<g>
</g>
<g>
</g>
<g>
</g>
<g>
</g>
<g>
</g>
<g>
</g>
<g>
</g>
<g>
</g>
<g>
</g>
<g>
</g>
<g>
</g>
<g>
</g>
<g>
</g>
</svg>
